<svg width="20" height="20" viewBox="0 0 20 20" fill="none" xmlns="http://www.w3.org/2000/svg">
<path d="M16.828 4.5871C15.2659 3.025 12.7332 3.025 11.1711 4.5871L11.082 4.67621C11.3662 4.84404 11.634 5.05004 11.8782 5.29421C12.1224 5.53837 12.3284 5.80625 12.4962 6.09042L12.5853 6.00131C13.3664 5.22027 14.6327 5.22027 15.4137 6.00131C16.1948 6.78236 16.1948 8.04869 15.4137 8.82974L9.12132 15.1222C7.94975 16.2937 6.05025 16.2937 4.87868 15.1222C3.70711 13.9506 3.70711 12.0511 4.87868 10.8795L8.34272 7.41553C8.73324 7.025 9.36641 7.025 9.75693 7.41553C10.1475 7.80605 10.1475 8.43922 9.75693 8.82974L7.0503 11.5364C6.65977 11.9269 6.65977 12.5601 7.0503 12.9506C7.44082 13.3411 8.07399 13.3411 8.46451 12.9506L11.1711 10.244C12.3427 9.07238 12.3427 7.17289 11.1711 6.00131C9.99957 4.82974 8.10008 4.82974 6.9285 6.00131L3.46447 9.46532C1.51184 11.4179 1.51184 14.5838 3.46447 16.5364C5.41709 18.489 8.58291 18.489 10.5355 16.5364L16.828 10.244C18.3901 8.68186 18.3901 6.1492 16.828 4.5871Z" fill="currentColor"/>
</svg>
